<svg width="227" height="81" viewBox="0 0 227 81" fill="none" xmlns="http://www.w3.org/2000/svg">
<g filter="url(#filter0_d)">
<path fill-rule="evenodd" clip-rule="evenodd" d="M38.6546 78.7383C36.8243 78.8018 34.9918 78.7287 33.1724 78.5196C32.5676 78.445 31.976 78.3563 31.3839 78.254C26.6052 77.4504 22.037 75.6953 17.9511 73.093C13.8651 70.4908 10.3448 67.0946 7.59932 63.1062C4.85384 59.1178 2.93929 54.6188 1.96947 49.8765C0.999656 45.1342 0.994373 40.2454 1.95394 35.5009C2.9135 30.7563 4.81833 26.2528 7.55517 22.2581C10.292 18.2634 13.805 14.8589 17.8853 12.2472C21.9656 9.63551 26.53 7.86981 31.307 7.05509C36.084 6.24037 40.9762 6.39326 45.6927 7.50468C46.4931 7.69544 47.2809 7.91399 48.0554 8.14667C54.0353 10.0035 59.4322 13.3744 63.7212 17.9316C68.0102 22.4888 71.0453 28.0773 72.5314 34.1533C72.817 35.3269 73.0412 36.5145 73.2031 37.7114C73.5438 40.1534 73.6301 42.6242 73.4605 45.0841C73.3825 46.2894 73.2417 47.4897 73.0387 48.6804C71.629 56.8697 67.4429 64.326 61.1825 69.7988C54.922 75.2715 46.968 78.4278 38.6546 78.7383Z" fill="white"/>
<path fill-rule="evenodd" clip-rule="evenodd" d="M42.783 42.1635C38.95 42.5297 36.5126 41.7126 32.6928 42.0647C31.7402 42.15 30.7977 42.3248 29.878 42.5868C30.1905 35.4675 35.0044 29.0933 41.8268 28.4996C46.0012 28.1078 50.2883 30.5553 50.6671 34.7388C51.0458 38.9222 47.9802 41.6676 42.7844 42.2044L42.783 42.1635ZM32.983 57.0368C28.9717 57.3956 24.8821 55.1188 24.5671 51.1929C24.2521 47.267 27.1444 44.6507 32.1106 44.2039C35.7805 43.8707 38.1198 44.6229 41.7897 44.2896C42.7095 44.2086 43.6199 44.0441 44.5098 43.7982C44.1269 50.4688 39.5178 56.4395 32.983 57.0368ZM36.2769 10.6628C29.9424 10.884 23.8157 12.9764 18.6714 16.6754C13.5272 20.3744 9.59661 25.5138 7.37662 31.4438C5.15663 37.3738 4.74698 43.828 6.19948 49.9902C7.65198 56.1524 10.9014 61.7459 15.5368 66.0633C20.1722 70.3807 25.9854 73.2281 32.2413 74.2455C38.4972 75.2629 44.9148 74.4045 50.6826 71.7789C56.4504 69.1533 61.3093 64.8785 64.6448 59.4949C67.9804 54.1113 69.6428 47.8609 69.4219 41.5339C69.1256 33.0498 65.4671 25.0309 59.2512 19.2415C53.0353 13.452 44.7712 10.3662 36.2769 10.6628Z" fill="#4360DF"/>
<path d="M225.603 44.8696C225.698 47.0716 225.03 49.239 223.709 51.0052C222.465 52.6385 220.809 53.9132 218.911 54.6996C216.976 55.5065 214.908 55.945 212.811 55.9925C209.575 56.2549 206.34 55.477 203.578 53.7724C202.309 52.9503 201.235 51.8611 200.431 50.581C199.627 49.301 199.114 47.8609 198.926 46.3617C198.851 45.7936 198.896 45.2162 199.058 44.6666C199.22 44.117 199.496 43.6075 199.868 43.171C199.895 43.1348 199.926 43.1017 199.96 43.0721L199.81 43.0774C199.346 43.093 198.882 43.0354 198.435 42.9067C198.308 42.8989 198.18 42.9034 198.053 42.92L197.889 42.9257L198.21 52.1417C198.248 53.228 197.853 54.2849 197.111 55.0799C196.368 55.8749 195.34 56.3429 194.253 56.3809L187.5 56.6167C186.607 56.6491 185.727 56.3895 184.996 55.8771C184.264 55.3648 183.72 54.6278 183.445 53.7782C182.412 54.7645 181.212 55.5607 179.901 56.1302C177.984 56.9501 175.927 57.3933 173.842 57.4354C171.375 57.5739 168.912 57.0961 166.677 56.0452C166.329 55.8796 166.008 55.6995 165.686 55.5057C165.335 56.091 164.844 56.5795 164.256 56.9271C163.668 57.2747 163.003 57.4702 162.32 57.496L154.624 57.7647C153.754 57.7942 152.897 57.5465 152.177 57.0573C151.49 57.5984 150.647 57.9057 149.772 57.9342L143.019 58.17C142.095 58.2024 141.188 57.9223 140.443 57.3752C139.699 56.8281 139.161 56.0459 138.917 55.1555C138.076 56.0171 137.11 56.7467 136.05 57.3198C133.893 58.3746 131.526 58.9314 129.125 58.949C126.723 58.9667 124.348 58.4446 122.176 57.4215C121.082 56.8622 120.075 56.1468 119.187 55.2977C119.104 56.3033 118.653 57.2432 117.919 57.9372C117.186 58.6312 116.222 59.0306 115.212 59.059L108.555 59.2915C107.72 59.3227 106.896 59.0987 106.192 58.6495C105.996 58.7479 105.793 58.8327 105.585 58.9031C105.234 59.0247 104.733 59.1789 104.068 59.3525C103.177 59.5856 102.266 59.7363 101.347 59.8029C101.005 59.8149 100.677 59.8263 100.362 59.8373C98.7928 59.9192 97.2216 59.7099 95.7285 59.2199C93.8699 58.6116 92.2704 57.3963 91.1874 55.7697C90.9487 55.4065 90.7387 55.0253 90.559 54.6297C90.4983 54.7506 90.4292 54.8673 90.3522 54.9786C89.0883 56.8901 87.2818 58.3811 85.1641 59.2608C82.9746 60.1697 80.6322 60.6551 78.2615 60.6911C75.7992 60.8182 73.3351 60.4775 71 59.687C68.6579 58.8797 66.6219 57.3708 65.1694 55.3659C63.6811 53.1989 62.8722 50.6385 62.8459 48.0106C62.8257 47.4707 62.9126 46.932 63.1016 46.4257C63.2906 45.9194 63.578 45.4554 63.9472 45.0605C64.1452 44.841 64.368 44.6451 64.6112 44.4768C63.6989 42.9188 63.208 41.1505 63.1865 39.3457C63.065 36.9992 63.7037 34.676 65.0081 32.7205C66.3035 30.8594 68.0767 29.3809 70.1416 28.4403C72.2913 27.4382 74.6254 26.8912 76.997 26.8339C79.3858 26.7021 81.775 27.0849 84.0025 27.9562C85.9911 28.75 87.7293 30.0632 89.035 31.7585C89.1975 30.8315 89.6743 29.9886 90.3855 29.3714C91.0966 28.7541 91.9988 28.4 92.9404 28.3686L99.6932 28.1328C100.486 28.1053 101.27 28.3079 101.949 28.716C102.629 29.1241 103.176 29.7203 103.523 30.4323C103.7 28.8438 104.428 27.3672 105.581 26.2595C106.94 24.9277 108.749 24.1523 110.651 24.0858C112.554 24.0194 114.412 24.6668 115.861 25.9005C116.611 26.5342 117.219 27.3195 117.644 28.2047C118.069 29.0899 118.301 30.055 118.326 31.0363C118.366 32.0149 118.194 32.9906 117.823 33.8972C118.192 34.4266 118.424 35.038 118.502 35.678C119.33 34.7668 120.284 33.9786 121.335 33.3372C123.434 32.1778 125.768 31.5043 128.162 31.3662C130.557 31.2282 132.953 31.6292 135.171 32.5396C136.229 33.0323 137.21 33.6749 138.085 34.4473L137.898 29.1089C137.86 28.0226 138.256 26.9656 138.998 26.1706C139.74 25.3756 140.768 24.9077 141.856 24.8697L148.609 24.6339C149.697 24.5959 150.755 24.991 151.551 25.7323C152.346 26.4736 152.815 27.5003 152.853 28.5867L152.93 30.7985C153.161 30.7701 153.395 30.7619 153.627 30.7741L161.214 30.5092C161.941 30.4851 162.661 30.6543 163.3 30.9994C163.94 31.3446 164.476 31.8533 164.855 32.4736C165.147 32.2516 165.45 32.0448 165.764 31.854C167.884 30.5872 170.3 29.8994 172.77 29.8596C174.583 29.7795 176.397 30.0312 178.12 30.6023C179.805 31.1745 181.345 32.1047 182.635 33.329C182.725 32.3281 183.179 31.3948 183.912 30.7063C184.645 30.0179 185.605 29.6224 186.611 29.595L193.159 29.3663C193.674 29.3444 194.188 29.424 194.672 29.6005C195.603 29.2103 196.598 28.9948 197.606 28.965C198.11 28.9492 198.613 28.9682 199.114 29.0217C199.579 29.0868 200.039 29.1803 200.492 29.3016C201.498 29.5643 202.366 30.1984 202.922 31.0759C203.713 30.4871 204.574 29.9979 205.485 29.6194C207.403 28.8778 209.437 28.4783 211.493 28.439C214.614 28.1944 217.732 28.9472 220.396 30.5887C221.695 31.4215 222.778 32.5505 223.555 33.8827C224.332 35.2149 224.781 36.7123 224.865 38.2518C224.93 39.0668 224.748 39.8825 224.345 40.5939C225.125 41.8874 225.558 43.36 225.603 44.8696Z" fill="white"/>
<path d="M85.9778 43.7581C85.2502 43.0838 84.4118 42.5397 83.4992 42.1496C82.3418 41.6628 81.1305 41.315 79.8909 41.1137L77.7979 40.7494C77.2692 40.6669 76.7478 40.5435 76.2384 40.38C75.8586 40.2645 75.4944 40.1028 75.1541 39.8985C74.8973 39.7471 74.6828 39.5336 74.5302 39.2778C74.3955 39.0282 74.329 38.7476 74.3376 38.4643C74.3363 38.1155 74.4387 37.7741 74.6318 37.4834C74.8773 37.1582 75.2104 36.9095 75.5922 36.7664C76.1417 36.5674 76.7214 36.4639 77.3059 36.4605C78.1789 36.3566 79.0602 36.5683 79.7903 37.0572C80.0748 37.2861 80.3089 37.5711 80.478 37.8945C80.6471 38.218 80.7475 38.5728 80.7729 38.9367L87.307 38.7085C87.2845 37.1851 86.8088 35.7028 85.9402 34.4503C85.0569 33.2186 83.8354 32.269 82.4232 31.7161C80.7429 31.0599 78.9395 30.7776 77.1388 30.889C75.3328 30.9146 73.5521 31.3166 71.9108 32.0695C70.4995 32.707 69.29 33.7184 68.4134 34.994C67.5883 36.2366 67.1929 37.7146 67.2875 39.2026C67.2688 40.0685 67.4442 40.9276 67.8009 41.717C68.1576 42.5064 68.6867 43.206 69.3492 43.7647C70.9033 44.9582 72.7412 45.7278 74.6828 45.998L77.1892 46.4436C77.9368 46.5726 78.6717 46.7665 79.3856 47.0231C79.8413 47.1744 80.257 47.4262 80.602 47.7598C80.8418 48.0395 80.9837 48.3897 81.0064 48.7572C81.0156 49.1558 80.8893 49.5457 80.6481 49.8633C80.3698 50.2234 79.9949 50.4972 79.5671 50.6529C78.9823 50.8633 78.3659 50.9727 77.7444 50.9763C76.9831 51.0252 76.2199 50.9169 75.5024 50.6582C74.8985 50.438 74.3746 50.0421 73.9983 49.5214C73.6416 48.9569 73.4397 48.3087 73.4126 47.6418L66.9469 47.8675C66.9512 49.6821 67.489 51.4553 68.4936 52.9671C69.4566 54.2965 70.8123 55.2913 72.3703 55.8117C74.2155 56.429 76.1614 56.6904 78.1044 56.5821C79.9695 56.5664 81.8146 56.1958 83.5408 55.49C84.9194 54.9384 86.1049 53.9937 86.9496 52.7737C87.7527 51.5133 88.1324 50.0299 88.0335 48.5392C88.0105 47.6407 87.8265 46.7536 87.4904 45.9199C87.1435 45.1013 86.6282 44.3648 85.9778 43.7581Z" fill="black"/>
<path d="M102.471 50.4542C102.235 50.513 101.993 50.5489 101.749 50.5614C101.501 50.5805 101.252 50.5425 101.02 50.4501C100.84 50.382 100.689 50.2515 100.597 50.0822C100.49 49.8819 100.436 49.6583 100.437 49.4316L100.163 41.581L103.389 41.4683L103.218 36.5804L99.9924 36.6931L99.8355 32.2012L93.0827 32.437L93.2396 36.9289L90.8337 37.0129L91.0044 41.9008L93.4103 41.8168L93.7064 50.2954C93.694 51.4391 93.9986 52.5639 94.5863 53.5455C95.168 54.4164 96.031 55.0617 97.0315 55.3739C98.3007 55.7674 99.6389 55.8884 100.958 55.7289C101.629 55.6804 102.294 55.5702 102.945 55.3998L104.3 55.0244L103.15 50.3074C102.928 50.3738 102.701 50.4229 102.471 50.4542Z" fill="black"/>
<path d="M114.441 36.1886L107.688 36.4244L108.344 55.1977L115.097 54.9618L114.441 36.1886Z" fill="black"/>
<path d="M111.01 34.3538C111.878 34.3424 112.707 33.9892 113.316 33.3711C113.617 33.0874 113.854 32.7425 114.011 32.3598C114.167 31.9771 114.24 31.5653 114.224 31.1522C114.213 30.7406 114.112 30.3364 113.929 29.9675C113.746 29.5986 113.485 29.2738 113.164 29.0157C112.499 28.4577 111.65 28.1658 110.781 28.1961C109.913 28.2264 109.087 28.5769 108.462 29.1799C108.16 29.4647 107.925 29.8123 107.773 30.1979C107.621 30.5835 107.556 30.9978 107.582 31.4115C107.592 31.8239 107.691 32.2293 107.871 32.6004C108.052 32.9714 108.31 33.2993 108.628 33.5621C109.29 34.123 110.144 34.4067 111.01 34.3538Z" fill="black"/>
<path d="M127.393 41.0402C127.82 40.6876 128.353 40.4906 128.907 40.4816C129.252 40.4583 129.598 40.51 129.921 40.6333C130.245 40.7565 130.537 40.9483 130.779 41.1954C131.328 41.8121 131.654 42.5949 131.705 43.4186L137.98 43.1995C137.952 41.701 137.508 40.2397 136.696 38.9793C135.906 37.7842 134.784 36.8449 133.468 36.276C131.856 35.6389 130.124 35.3597 128.392 35.458C126.661 35.5562 124.972 36.0294 123.442 36.8448C122.045 37.6768 120.922 38.8994 120.212 40.3614C119.464 41.9552 119.125 43.7101 119.227 45.4674C119.247 47.2276 119.707 48.9549 120.566 50.4922C121.366 51.9039 122.568 53.0466 124.02 53.7753C125.605 54.4822 127.325 54.8365 129.061 54.8137C130.798 54.7908 132.508 54.3913 134.074 53.6429C135.343 52.9697 136.39 51.946 137.092 50.6942C137.796 49.3491 138.135 47.8432 138.075 46.3265L131.815 46.5452C131.807 47.1214 131.677 47.6895 131.435 48.2125C131.237 48.6457 130.923 49.0161 130.528 49.2831C130.123 49.5405 129.653 49.6756 129.173 49.6721C128.62 49.7017 128.074 49.5424 127.624 49.2204C127.122 48.8432 126.746 48.3225 126.546 47.7271C126.249 46.9126 126.094 46.0535 126.087 45.1868C126.032 44.3173 126.127 43.4447 126.367 42.6071C126.539 41.9916 126.898 41.4444 127.393 41.0402Z" fill="black"/>
<path d="M161.355 34.5502L153.768 34.8152L149.437 41.2819L149.191 41.2905L148.752 28.7295L141.999 28.9653L142.873 53.9917L149.626 53.7559L149.44 48.4312L150.407 47.1124L154.479 53.5865L162.216 53.3163L155.245 43.0065L161.355 34.5502Z" fill="black"/>
<path d="M179.808 36.2438C178.942 35.4398 177.913 34.8323 176.79 34.4627C175.54 34.054 174.226 33.8775 172.912 33.942C171.148 33.9625 169.419 34.4422 167.897 35.3337C166.517 36.1678 165.409 37.3842 164.707 38.8353C163.945 40.4299 163.602 42.1918 163.709 43.9553C163.72 45.7607 164.182 47.5347 165.052 49.1166C165.871 50.4952 167.082 51.5996 168.53 52.2897C170.169 53.0369 171.967 53.3686 173.765 53.2551C175.32 53.2356 176.857 52.9126 178.289 52.3043C179.495 51.8013 180.55 50.9972 181.355 49.969C182.119 48.9688 182.598 47.7806 182.741 46.5305L176.548 46.7467C176.43 47.0964 176.23 47.4128 175.965 47.6693C175.684 47.9343 175.351 48.1369 174.986 48.264C174.578 48.4192 174.146 48.5036 173.709 48.5136C173.113 48.5516 172.519 48.4308 171.986 48.1637C171.513 47.9249 171.119 47.5539 170.853 47.096C170.584 46.6055 170.438 46.0571 170.428 45.4978L170.418 45.1974L182.652 44.7702L182.597 43.2137C182.565 41.8394 182.281 40.4827 181.76 39.2103C181.324 38.096 180.659 37.0854 179.808 36.2438ZM170.289 41.5247C170.286 41.0389 170.416 40.5615 170.665 40.1446C170.926 39.7218 171.297 39.378 171.739 39.1502C172.196 38.8967 172.708 38.7569 173.23 38.7427C173.753 38.7171 174.274 38.821 174.747 39.0451C175.19 39.2519 175.57 39.5739 175.847 39.9773C176.116 40.3792 176.274 40.8454 176.304 41.3283L170.289 41.5247Z" fill="black"/>
<path d="M197.735 33.0338C196.778 33.0506 195.859 33.4074 195.142 34.0402C194.333 34.8377 193.799 35.8712 193.617 36.9915L193.412 36.9987L193.287 33.4352L186.726 33.6643L187.381 52.4376L194.148 52.2013L193.806 42.4255C193.769 41.7697 193.902 41.1152 194.192 40.5256C194.485 40.0002 194.92 39.5681 195.448 39.2788C195.979 38.9534 196.587 38.7764 197.21 38.7662C197.631 38.7612 198.052 38.7784 198.471 38.8178C198.895 38.841 199.316 38.9134 199.724 39.0338L199.521 33.2312C199.241 33.1563 198.955 33.1023 198.667 33.0696C198.358 33.0341 198.046 33.0221 197.735 33.0338Z" fill="black"/>
<path d="M219.952 41.7585C218.662 40.8493 217.156 40.2939 215.584 40.1476L211.746 39.5981C211.22 39.5637 210.713 39.3878 210.278 39.0889C210.162 38.9997 210.068 38.8859 210.002 38.7558C209.936 38.6257 209.9 38.4826 209.896 38.3368C209.876 38.1421 209.918 37.9462 210.015 37.7762C210.112 37.6063 210.26 37.4707 210.438 37.3883C210.898 37.1473 211.41 37.0216 211.93 37.0217C212.35 37.0018 212.77 37.0614 213.168 37.1972C213.521 37.3227 213.839 37.5322 214.093 37.8074C214.343 38.0788 214.498 38.4232 214.538 38.7898L220.757 38.5726C220.716 37.6523 220.454 36.7554 219.992 35.9578C219.531 35.1601 218.884 34.4852 218.106 33.9901C216.154 32.8294 213.885 32.3153 211.623 32.5214C210.048 32.5466 208.489 32.8415 207.013 33.3932C205.848 33.8275 204.834 34.5893 204.093 35.5867C203.407 36.565 203.081 37.7499 203.17 38.9407C203.156 39.6068 203.283 40.2683 203.54 40.8831C203.797 41.4978 204.179 42.0523 204.663 42.5111C205.933 43.5386 207.488 44.1522 209.118 44.2693L212.473 44.7399C213.04 44.7968 213.592 44.9534 214.105 45.2024C214.265 45.2797 214.402 45.3986 214.501 45.5465C214.6 45.6945 214.658 45.8663 214.668 46.044C214.664 46.2364 214.608 46.4241 214.505 46.5868C214.402 46.7494 214.257 46.8808 214.084 46.9666C213.613 47.2056 213.092 47.3315 212.564 47.3341C211.895 47.3825 211.225 47.2399 210.634 46.923C210.391 46.781 210.181 46.5883 210.02 46.358C209.858 46.1277 209.748 45.8653 209.697 45.5887L202.999 45.8226C203.115 46.7473 203.435 47.6348 203.936 48.421C204.437 49.2072 205.106 49.8727 205.895 50.3693C207.945 51.5802 210.325 52.1142 212.696 51.8952C214.284 51.8705 215.852 51.542 217.315 50.9274C218.538 50.4215 219.605 49.6013 220.408 48.5502C221.167 47.5376 221.545 46.2902 221.475 45.0271C221.479 44.4036 221.344 43.7872 221.08 43.2221C220.817 42.6569 220.431 42.1571 219.952 41.7585Z" fill="black"/>
</g>
<defs>
<filter id="filter0_d" x="0.238159" y="6.53992" width="226.374" height="74.2205" filterUnits="userSpaceOnUse" color-interpolation-filters="sRGB">
<feFlood flood-opacity="0" result="BackgroundImageFix"/>
<feColorMatrix in="SourceAlpha" type="matrix" values="0 0 0 0 0 0 0 0 0 0 0 0 0 0 0 0 0 0 127 0"/>
<feOffset dy="1"/>
<feGaussianBlur stdDeviation="0.5"/>
<feColorMatrix type="matrix" values="0 0 0 0 0.0901345 0 0 0 0 0.129148 0 0 0 0 0.3 0 0 0 0.15 0"/>
<feBlend mode="normal" in2="BackgroundImageFix" result="effect1_dropShadow"/>
<feBlend mode="normal" in="SourceGraphic" in2="effect1_dropShadow" result="shape"/>
</filter>
</defs>
</svg>
