<svg width="41" height="40" viewBox="0 0 41 40" fill="none" xmlns="http://www.w3.org/2000/svg">
<circle cx="20.5" cy="20" r="20" fill="#ECEFFC"/>
<path d="M20.75 13C21.1642 13 21.5 13.3358 21.5 13.75V18.5C21.5 18.7761 21.7239 19 22 19H26.75C27.1642 19 27.5 19.3358 27.5 19.75C27.5 20.1642 27.1642 20.5 26.75 20.5H22C21.7239 20.5 21.5 20.7239 21.5 21V25.75C21.5 26.1642 21.1642 26.5 20.75 26.5C20.3358 26.5 20 26.1642 20 25.75V21C20 20.7239 19.7761 20.5 19.5 20.5H14.75C14.3358 20.5 14 20.1642 14 19.75C14 19.3358 14.3358 19 14.75 19H19.5C19.7761 19 20 18.7761 20 18.5V13.75C20 13.3358 20.3358 13 20.75 13Z" fill="#4360DF"/>
</svg>
