<svg width="41" height="40" viewBox="0 0 41 40" fill="none" xmlns="http://www.w3.org/2000/svg">
<circle cx="20.5" cy="20" r="20" fill="#ECEFFC"/>
<path d="M15.0303 18.5303C14.7374 18.8232 14.2626 18.8232 13.9697 18.5303C13.6768 18.2374 13.6768 17.7626 13.9697 17.4697L19.9697 11.4697C20.2626 11.1768 20.7374 11.1768 21.0303 11.4697L27.0303 17.4697C27.3232 17.7626 27.3232 18.2374 27.0303 18.5303C26.7374 18.8232 26.2626 18.8232 25.9697 18.5303L22.1036 14.6642C21.7886 14.3492 21.25 14.5723 21.25 15.0178L21.25 28C21.25 28.4142 20.9142 28.75 20.5 28.75C20.0858 28.75 19.75 28.4142 19.75 28L19.75 15.0178C19.75 14.5723 19.2114 14.3492 18.8964 14.6642L15.0303 18.5303Z" fill="#4360DF"/>
</svg>
