<svg width="34" height="34" viewBox="0 0 34 34" fill="none" xmlns="http://www.w3.org/2000/svg">
<g filter="url(#filter0_d)">
<circle cx="17.0001" cy="16" r="16" fill="#4360DF"/>
<circle cx="17.0001" cy="16" r="15" stroke="white" stroke-width="2"/>
</g>
<path d="M17.5516 22.1195C16.8241 22.196 16.1611 22.1389 15.5626 21.9483C14.9676 21.7573 14.4808 21.4568 14.102 21.0467C13.7265 20.6327 13.4953 20.1321 13.4086 19.5449L15.072 19.3701C15.127 19.6892 15.264 19.9569 15.4831 20.1731C15.7054 20.3854 15.9822 20.5384 16.3134 20.6322C16.6446 20.7259 17.0044 20.7523 17.3929 20.7115C17.8203 20.6666 18.1903 20.5527 18.5032 20.3699C18.8196 20.1866 19.0575 19.9528 19.2168 19.6682C19.3758 19.3801 19.4369 19.0613 19.4001 18.7116C19.3619 18.3479 19.2347 18.0381 19.0186 17.7823C18.8056 17.5226 18.5124 17.332 18.139 17.2106C17.7691 17.0888 17.3335 17.0542 16.832 17.1069L15.9155 17.2033L15.7752 15.8683L16.6916 15.772C17.0943 15.7296 17.4398 15.6201 17.7283 15.4434C18.0204 15.2663 18.2394 15.0398 18.3853 14.7638C18.5309 14.4842 18.5853 14.1696 18.5486 13.82C18.5133 13.4845 18.4067 13.2011 18.2289 12.9699C18.0542 12.7347 17.8217 12.561 17.5314 12.4487C17.2446 12.336 16.9158 12.2991 16.545 12.3381C16.1918 12.3752 15.8685 12.4753 15.5749 12.6382C15.2846 12.7973 15.0567 13.0069 14.8912 13.2671C14.7253 13.5238 14.6528 13.8188 14.6736 14.1523L13.0896 14.3188C13.0457 13.7307 13.1645 13.1969 13.4462 12.7173C13.7314 12.2375 14.1328 11.8436 14.6503 11.5356C15.1678 11.2277 15.7586 11.0389 16.4225 10.9691C17.1183 10.896 17.7329 10.9688 18.2665 11.1877C18.8033 11.4027 19.233 11.7199 19.5556 12.1395C19.8818 12.5587 20.0711 13.0351 20.1236 13.5688C20.191 14.1759 20.0757 14.7093 19.7776 15.1691C19.4831 15.6285 19.061 15.9604 18.5111 16.1645L18.52 16.2493C19.252 16.2831 19.8401 16.5105 20.2842 16.9316C20.7319 17.3523 20.99 17.9054 21.0585 18.5909C21.1248 19.1874 21.015 19.7399 20.7293 20.2484C20.447 20.7565 20.0324 21.1768 19.4853 21.5092C18.9378 21.8382 18.2933 22.0416 17.5516 22.1195Z" fill="white"/>
<defs>
<filter id="filter0_d" x="0.00012207" y="0" width="34" height="34" filterUnits="userSpaceOnUse" color-interpolation-filters="sRGB">
<feFlood flood-opacity="0" result="BackgroundImageFix"/>
<feColorMatrix in="SourceAlpha" type="matrix" values="0 0 0 0 0 0 0 0 0 0 0 0 0 0 0 0 0 0 127 0"/>
<feOffset dy="1"/>
<feGaussianBlur stdDeviation="0.5"/>
<feColorMatrix type="matrix" values="0 0 0 0 0.0901345 0 0 0 0 0.129148 0 0 0 0 0.3 0 0 0 0.15 0"/>
<feBlend mode="normal" in2="BackgroundImageFix" result="effect1_dropShadow"/>
<feBlend mode="normal" in="SourceGraphic" in2="effect1_dropShadow" result="shape"/>
</filter>
</defs>
</svg>
